<svg xmlns="http://www.w3.org/2000/svg" width="1180" height="780" viewBox="0 0 1180 780">
  <defs><marker id="arrow" viewBox="0 0 10 10" refX="9" refY="5" markerWidth="8" markerHeight="8" orient="auto"><path d="M0,0 L10,5 L0,10 Z" fill="#3f4a56"/></marker></defs>
  <style>.t{font:700 24px "Microsoft YaHei",Arial,sans-serif;fill:#1f2d3d}.h{font:700 16px "Microsoft YaHei",Arial,sans-serif;fill:#1f2d3d}.p{font:13px "Microsoft YaHei",Arial,sans-serif;fill:#4b5966}.root,.box{fill:#fff;stroke:#566676;stroke-width:1.35;rx:5}.grp{fill:#f8fafc;stroke:#b8c2cc;stroke-width:1.1;rx:4}.line{stroke:#3f4a56;stroke-width:1.35;fill:none;marker-end:url(#arrow)}</style>
  <rect width="1180" height="780" fill="#fff"/><text x="590" y="40" text-anchor="middle" class="t">系统测试用例图</text>
  <rect x="420" y="75" width="340" height="58" class="root"/><text x="590" y="109" text-anchor="middle" class="h">系统测试用例</text>
  <g transform="translate(60,185)"><rect width="230" height="230" class="grp"/><text x="115" y="32" text-anchor="middle" class="h">认证与初始化测试</text><rect x="35" y="62" width="160" height="36" class="box"/><text x="115" y="85" text-anchor="middle" class="p">密码正确登录</text><rect x="35" y="110" width="160" height="36" class="box"/><text x="115" y="133" text-anchor="middle" class="p">密码错误拒绝</text><rect x="35" y="158" width="160" height="36" class="box"/><text x="115" y="181" text-anchor="middle" class="p">数据库连接测试</text></g>
  <g transform="translate(340,185)"><rect width="230" height="230" class="grp"/><text x="115" y="32" text-anchor="middle" class="h">视频接入测试</text><rect x="35" y="62" width="160" height="36" class="box"/><text x="115" y="85" text-anchor="middle" class="p">网络流启动</text><rect x="35" y="110" width="160" height="36" class="box"/><text x="115" y="133" text-anchor="middle" class="p">本地摄像头推流</text><rect x="35" y="158" width="160" height="36" class="box"/><text x="115" y="181" text-anchor="middle" class="p">停止并释放资源</text></g>
  <g transform="translate(620,185)"><rect width="230" height="230" class="grp"/><text x="115" y="32" text-anchor="middle" class="h">检测推理测试</text><rect x="35" y="62" width="160" height="36" class="box"/><text x="115" y="85" text-anchor="middle" class="p">权重加载</text><rect x="35" y="110" width="160" height="36" class="box"/><text x="115" y="133" text-anchor="middle" class="p">返回检测框</text><rect x="35" y="158" width="160" height="36" class="box"/><text x="115" y="181" text-anchor="middle" class="p">Track ID 生成</text></g>
  <g transform="translate(900,185)"><rect width="230" height="230" class="grp"/><text x="115" y="32" text-anchor="middle" class="h">检索与统计测试</text><rect x="35" y="62" width="160" height="36" class="box"/><text x="115" y="85" text-anchor="middle" class="p">中文关键词查询</text><rect x="35" y="110" width="160" height="36" class="box"/><text x="115" y="133" text-anchor="middle" class="p">最后位置查询</text><rect x="35" y="158" width="160" height="36" class="box"/><text x="115" y="181" text-anchor="middle" class="p">统计图表数据</text></g>
  <g transform="translate(200,485)"><rect width="270" height="190" class="grp"/><text x="135" y="32" text-anchor="middle" class="h">安全与异常测试</text><rect x="55" y="62" width="160" height="36" class="box"/><text x="135" y="85" text-anchor="middle" class="p">未登录访问拒绝</text><rect x="55" y="110" width="160" height="36" class="box"/><text x="135" y="133" text-anchor="middle" class="p">Token 无效拒绝</text></g>
  <g transform="translate(710,485)"><rect width="270" height="190" class="grp"/><text x="135" y="32" text-anchor="middle" class="h">部署与运维测试</text><rect x="55" y="62" width="160" height="36" class="box"/><text x="135" y="85" text-anchor="middle" class="p">Docker 启动</text><rect x="55" y="110" width="160" height="36" class="box"/><text x="135" y="133" text-anchor="middle" class="p">健康检查与快照清理</text></g>
  <path d="M590 133 V160 H175 V185" class="line"/><path d="M590 160 H455 V185" class="line"/><path d="M590 160 H735 V185" class="line"/><path d="M590 160 H1015 V185" class="line"/><path d="M590 133 V460 H335 V485" class="line"/><path d="M590 460 H845 V485" class="line"/>
</svg>
